<svg xmlns="http://www.w3.org/2000/svg" width="99.868" height="99.867" viewBox="0 0 99.868 99.867"><g transform="translate(28.934 28.934)"><path d="M33.317,4H5.48A3.475,3.475,0,0,0,2.017,7.48L2,28.357a3.49,3.49,0,0,0,3.48,3.48H33.317a3.49,3.49,0,0,0,3.48-3.48V7.48A3.49,3.49,0,0,0,33.317,4Zm0,6.959L19.4,19.658,5.48,10.959V7.48l13.919,8.7,13.919-8.7Z" transform="translate(1.48 2.959)" fill="#fff"/><path d="M0,0H41.756V41.756H0Z" fill="none"/></g><g fill="none" stroke="#fff" stroke-width="5"><ellipse cx="49.934" cy="49.934" rx="49.934" ry="49.934" stroke="none"/><ellipse cx="49.934" cy="49.934" rx="47.434" ry="47.434" fill="none"/></g></svg>