<svg xmlns="http://www.w3.org/2000/svg" width="99.868" height="99.867" viewBox="0 0 99.868 99.867"><g transform="translate(0)"><g transform="translate(28.934 28.934)"><path d="M17.179,2A12.17,12.17,0,0,0,5,14.179C5,23.313,17.179,36.8,17.179,36.8S29.358,23.313,29.358,14.179A12.17,12.17,0,0,0,17.179,2Zm0,16.528a4.35,4.35,0,1,1,4.35-4.35A4.351,4.351,0,0,1,17.179,18.528Z" transform="translate(3.699 1.48)" fill="#fff"/><path d="M0,0H41.756V41.756H0Z" fill="none"/></g><g transform="translate(0)" fill="none" stroke="#fff" stroke-width="5"><ellipse cx="49.934" cy="49.934" rx="49.934" ry="49.934" stroke="none"/><ellipse cx="49.934" cy="49.934" rx="47.434" ry="47.434" fill="none"/></g></g></svg>