<svg xmlns="http://www.w3.org/2000/svg" xmlns:xlink="http://www.w3.org/1999/xlink" width="55.265" height="273.396" viewBox="0 0 55.265 273.396"><defs><filter id="a" x="38.386" y="256.518" width="16.878" height="16.878" filterUnits="userSpaceOnUse"><feOffset dy="3" input="SourceAlpha"/><feGaussianBlur stdDeviation="1" result="b"/><feFlood flood-opacity="0.22"/><feComposite operator="in" in2="b"/><feComposite in="SourceGraphic"/></filter><filter id="c" x="0" y="220.435" width="16.878" height="16.878" filterUnits="userSpaceOnUse"><feOffset dy="3" input="SourceAlpha"/><feGaussianBlur stdDeviation="1" result="d"/><feFlood flood-opacity="0.22"/><feComposite operator="in" in2="d"/><feComposite in="SourceGraphic"/></filter><filter id="e" x="3.839" y="227.863" width="48.013" height="40.187" filterUnits="userSpaceOnUse"><feOffset dy="3" input="SourceAlpha"/><feGaussianBlur stdDeviation="1" result="f"/><feFlood flood-opacity="0.22"/><feComposite operator="in" in2="f"/><feComposite in="SourceGraphic"/></filter><filter id="g" x="15.123" y="77.887" width="24.689" height="43.377" filterUnits="userSpaceOnUse"><feOffset dy="3" input="SourceAlpha"/><feGaussianBlur stdDeviation="1" result="h"/><feFlood flood-opacity="0.22"/><feComposite operator="in" in2="h"/><feComposite in="SourceGraphic"/></filter><filter id="i" x="38.386" y="109.562" width="16.878" height="16.878" filterUnits="userSpaceOnUse"><feOffset dy="3" input="SourceAlpha"/><feGaussianBlur stdDeviation="1" result="j"/><feFlood flood-opacity="0.22"/><feComposite operator="in" in2="j"/><feComposite in="SourceGraphic"/></filter><filter id="k" x="0" y="73.479" width="16.878" height="16.878" filterUnits="userSpaceOnUse"><feOffset dy="3" input="SourceAlpha"/><feGaussianBlur stdDeviation="1" result="l"/><feFlood flood-opacity="0.22"/><feComposite operator="in" in2="l"/><feComposite in="SourceGraphic"/></filter><filter id="m" x="38.386" y="183.039" width="16.878" height="16.878" filterUnits="userSpaceOnUse"><feOffset dy="3" input="SourceAlpha"/><feGaussianBlur stdDeviation="1" result="n"/><feFlood flood-opacity="0.42"/><feComposite operator="in" in2="n"/><feComposite in="SourceGraphic"/></filter><filter id="o" x="0" y="146.956" width="16.878" height="16.878" filterUnits="userSpaceOnUse"><feOffset dy="3" input="SourceAlpha"/><feGaussianBlur stdDeviation="1" result="p"/><feFlood flood-opacity="0.42"/><feComposite operator="in" in2="p"/><feComposite in="SourceGraphic"/></filter><filter id="q" x="9.213" y="154.698" width="36.709" height="36.709" filterUnits="userSpaceOnUse"><feOffset dy="3" input="SourceAlpha"/><feGaussianBlur stdDeviation="1" result="r"/><feFlood flood-opacity="0.22"/><feComposite operator="in" in2="r"/><feComposite in="SourceGraphic"/></filter><filter id="s" x="16.89" y="162.375" width="21.354" height="21.354" filterUnits="userSpaceOnUse"><feOffset dy="3" input="SourceAlpha"/><feGaussianBlur stdDeviation="1" result="t"/><feFlood flood-opacity="0.22"/><feComposite operator="in" in2="t"/><feComposite in="SourceGraphic"/></filter><filter id="u" x="31.476" y="159.305" width="9.071" height="9.071" filterUnits="userSpaceOnUse"><feOffset dy="3" input="SourceAlpha"/><feGaussianBlur stdDeviation="1" result="v"/><feFlood flood-opacity="0.22"/><feComposite operator="in" in2="v"/><feComposite in="SourceGraphic"/></filter><filter id="w" x="38.386" y="36.083" width="16.878" height="16.878" filterUnits="userSpaceOnUse"><feOffset dy="3" input="SourceAlpha"/><feGaussianBlur stdDeviation="1" result="x"/><feFlood flood-opacity="0.22"/><feComposite operator="in" in2="x"/><feComposite in="SourceGraphic"/></filter><filter id="y" x="0" y="0" width="16.878" height="16.878" filterUnits="userSpaceOnUse"><feOffset dy="3" input="SourceAlpha"/><feGaussianBlur stdDeviation="1" result="z"/><feFlood flood-opacity="0.22"/><feComposite operator="in" in2="z"/><feComposite in="SourceGraphic"/></filter><filter id="aa" x="5.71" y="8.985" width="43.724" height="34.3" filterUnits="userSpaceOnUse"><feOffset dy="3" input="SourceAlpha"/><feGaussianBlur stdDeviation="1" result="ab"/><feFlood flood-opacity="0.22"/><feComposite operator="in" in2="ab"/><feComposite in="SourceGraphic"/></filter><filter id="ac" x="20.962" y="15.867" width="16.683" height="20.47" filterUnits="userSpaceOnUse"><feOffset dy="3" input="SourceAlpha"/><feGaussianBlur stdDeviation="1" result="ad"/><feFlood flood-opacity="0.22"/><feComposite operator="in" in2="ad"/><feComposite in="SourceGraphic"/></filter></defs><g transform="translate(-82.839 -605.198)" opacity="0.6"><g transform="translate(85.84 825.633)"><g transform="translate(0 0)"><g transform="matrix(1, 0, 0, 1, -3, -220.43)" filter="url(#a)"><path d="M8.461,10.878h2.417V0H8.461V8.461H0v2.417Z" transform="translate(41.39 256.52)" fill="#fff"/></g><g transform="matrix(1, 0, 0, 1, -3, -220.43)" filter="url(#c)"><path d="M8.461,10.878h2.417V0H8.461V8.461H0v2.417Z" transform="translate(13.88 231.31) rotate(180)" fill="#fff"/></g></g><g transform="matrix(1, 0, 0, 1, -3, -220.43)" filter="url(#e)"><path d="M49.186,65.424A7.2,7.2,0,0,1,54.438,67.7l.543.579.775-.151c.4-.08.792-.169,1.184-.276a10,10,0,0,1-.979.961c-.4.356-1.585,1.469-1.585,1.469a12.986,12.986,0,0,0,1.879.445,7.213,7.213,0,0,0,1.683-.071c-.249.2-.694.516-.962.7l-.623.454.036.766c.018.338.027.694.027,1.051A23.537,23.537,0,0,1,54.9,81.779,23.944,23.944,0,0,1,50.45,89.24a21.737,21.737,0,0,1-7.22,5.413,23.372,23.372,0,0,1-9.927,2.1,22.93,22.93,0,0,1-7.523-1.264,18.6,18.6,0,0,0,7.941-3.641l3.143-2.466-4-.071a7.186,7.186,0,0,1-5.725-3.018,9.9,9.9,0,0,0,1.914-.329l5.4-1.8-5.493-.97a7.2,7.2,0,0,1-5.457-4.968,10.947,10.947,0,0,0,2.128.294s2.831.125,4.968-.009c-1.157-.552-4.131-2.6-4.131-2.6a7.209,7.209,0,0,1-3.205-6,7.7,7.7,0,0,1,.2-1.692A25.913,25.913,0,0,0,40.71,76l1.887.1-.427-1.843a7.129,7.129,0,0,1-.187-1.647,7.208,7.208,0,0,1,7.2-7.185m0-1.424a8.621,8.621,0,0,0-8.618,8.627,8.438,8.438,0,0,0,.223,1.968,24.427,24.427,0,0,1-17.77-9.019A8.644,8.644,0,0,0,25.691,77.1a8.412,8.412,0,0,1-3.908-1.077v.107A8.627,8.627,0,0,0,28.7,84.583a8.677,8.677,0,0,1-2.27.3,8.132,8.132,0,0,1-1.62-.16,8.633,8.633,0,0,0,8.057,5.992,17.281,17.281,0,0,1-10.71,3.695,17.471,17.471,0,0,1-2.057-.125,24.145,24.145,0,0,0,13.2,3.9c15.865,0,24.536-13.15,24.536-24.554,0-.374-.009-.748-.027-1.113a17.546,17.546,0,0,0,4.3-4.469,17.426,17.426,0,0,1-4.95,1.362,8.65,8.65,0,0,0,3.793-4.772,17.127,17.127,0,0,1-5.475,2.092A8.609,8.609,0,0,0,49.186,64Z" transform="translate(-13.26 163.86)" fill="#fff"/></g></g><g transform="translate(85.84 678.677)"><g transform="matrix(1, 0, 0, 1, -3, -73.48)" filter="url(#g)"><path d="M172.459,76.459V72.751c0-1.674.37-2.521,2.969-2.521h3.261V64h-5.441c-6.668,0-8.867,3.056-8.867,8.3v4.156H160v6.23h4.38v18.689h8.079V82.689h5.49l.74-6.23Zm4.108,4.672H170.9V99.82h-4.964V81.131h-4.38V78.016h4.38V72.3c0-2.385.526-4.01,1.509-5.042,1.09-1.168,3.027-1.7,5.8-1.7h3.884v3.115h-1.7a4.73,4.73,0,0,0-3.611,1.139,4.16,4.16,0,0,0-.915,2.93v5.276h6.035Z" transform="translate(-141.88 13.89)" fill="#fff"/></g><g transform="translate(0 0)"><g transform="matrix(1, 0, 0, 1, -3, -73.48)" filter="url(#i)"><path d="M8.461,10.878h2.417V0H8.461V8.461H0v2.417Z" transform="translate(41.39 109.56)" fill="#fff"/></g><g transform="matrix(1, 0, 0, 1, -3, -73.48)" filter="url(#k)"><path d="M8.461,10.878h2.417V0H8.461V8.461H0v2.417Z" transform="translate(13.88 84.36) rotate(180)" fill="#fff"/></g></g></g><g transform="translate(85.84 752.155)"><g transform="translate(0 0)"><g transform="matrix(1, 0, 0, 1, -3, -146.96)" filter="url(#m)"><path d="M8.461,10.878h2.417V0H8.461V8.461H0v2.417Z" transform="translate(41.39 183.04)" fill="#fff"/></g><g transform="matrix(1, 0, 0, 1, -3, -146.96)" filter="url(#o)"><path d="M8.461,10.878h2.417V0H8.461V8.461H0v2.417Z" transform="translate(13.88 157.83) rotate(180)" fill="#fff"/></g></g><g transform="translate(9.213 7.743)"><g transform="matrix(1, 0, 0, 1, -12.21, -154.7)" filter="url(#q)"><g transform="translate(12.21 154.7)" fill="none" stroke="#fff" stroke-width="2.5"><rect width="30.709" height="30.709" rx="9" stroke="none"/><rect x="1.25" y="1.25" width="28.209" height="28.209" rx="7.75" fill="none"/></g></g><g transform="matrix(1, 0, 0, 1, -12.21, -154.7)" filter="url(#s)"><g transform="translate(19.89 162.38)" fill="none" stroke="#fff" stroke-width="2.5"><circle cx="7.677" cy="7.677" r="7.677" stroke="none"/><circle cx="7.677" cy="7.677" r="6.427" fill="none"/></g></g><g transform="matrix(1, 0, 0, 1, -12.21, -154.7)" filter="url(#u)"><circle cx="1.535" cy="1.535" r="1.535" transform="translate(34.48 159.31)" fill="#fff"/></g></g></g><g transform="translate(85.839 605.199)"><g transform="translate(0 0)"><g transform="matrix(1, 0, 0, 1, -3, 0)" filter="url(#w)"><path d="M8.461,10.878h2.417V0H8.461V8.461H0v2.417Z" transform="translate(41.39 36.08)" fill="#fff"/></g><g transform="matrix(1, 0, 0, 1, -3, 0)" filter="url(#y)"><path d="M8.461,10.878h2.417V0H8.461V8.461H0v2.417Z" transform="translate(13.88 10.88) rotate(180)" fill="#fff"/></g></g><g transform="translate(5.71 8.985)"><g transform="translate(0)"><g transform="matrix(1, 0, 0, 1, -8.71, -8.99)" filter="url(#aa)"><path d="M19.518,66.358c4.811,0,8.746.081,12.385.243h.1A3.392,3.392,0,0,1,35.1,70.218V70.3l.007.081c.169,2.505.251,5.106.251,7.729h0c.007,2.623-.081,5.224-.251,7.729l-.007.081V86a3.9,3.9,0,0,1-.987,2.66,2.852,2.852,0,0,1-2.107.987h-.118c-3.9.184-8.016.28-12.26.28H18.052c-4.259,0-8.377-.1-12.245-.273H5.689a2.836,2.836,0,0,1-2.1-.987,3.94,3.94,0,0,1-.987-2.66v-.081l-.007-.081c-.177-2.512-.258-5.113-.243-7.714v-.015c-.007-2.6.074-5.194.243-7.707l.007-.081v-.081a3.4,3.4,0,0,1,3.087-3.632h.1c3.647-.169,7.581-.243,12.393-.243h1.334m0-2.372H18.192c-4.244,0-8.414.059-12.5.243a5.733,5.733,0,0,0-5.445,5.99c-.184,2.638-.265,5.261-.258,7.891s.066,5.253.251,7.884A5.753,5.753,0,0,0,5.689,92.02q6.056.287,12.363.28h1.591q6.311,0,12.37-.28a5.754,5.754,0,0,0,5.452-6.012q.265-3.945.25-7.891c.007-2.63-.074-5.253-.25-7.891a5.72,5.72,0,0,0-5.452-5.975c-4.082-.192-8.245-.25-12.5-.25Z" transform="translate(8.72 -55.01)" fill="#fff"/></g><g transform="translate(15.252 6.881)"><g transform="matrix(1, 0, 0, 1, -23.96, -15.87)" filter="url(#ac)"><path d="M207,171.87V157.4l10.683,7.235Z" transform="translate(-183.04 -141.53)" fill="#fff"/></g></g></g></g></g></g></svg>