<svg xmlns="http://www.w3.org/2000/svg" xmlns:xlink="http://www.w3.org/1999/xlink" viewBox="0 0 102.476 97.966"><defs><style>.a{fill:#fff;}.b{filter:url(#e);}.c{filter:url(#c);}.d{filter:url(#a);}</style><filter id="a" x="29.615" y="8.633" width="42.599" height="79.197" filterUnits="userSpaceOnUse"><feOffset dy="3" input="SourceAlpha"/><feGaussianBlur stdDeviation="1" result="b"/><feFlood flood-opacity="0.22"/><feComposite operator="in" in2="b"/><feComposite in="SourceGraphic"/></filter><filter id="c" x="75.173" y="70.662" width="27.304" height="27.304" filterUnits="userSpaceOnUse"><feOffset dy="3" input="SourceAlpha"/><feGaussianBlur stdDeviation="1" result="d"/><feFlood flood-opacity="0.22"/><feComposite operator="in" in2="d"/><feComposite in="SourceGraphic"/></filter><filter id="e" x="0" y="0" width="27.304" height="27.304" filterUnits="userSpaceOnUse"><feOffset dy="3" input="SourceAlpha"/><feGaussianBlur stdDeviation="1" result="f"/><feFlood flood-opacity="0.22"/><feComposite operator="in" in2="f"/><feComposite in="SourceGraphic"/></filter></defs><g transform="translate(3 0)"><g class="d" transform="matrix(1, 0, 0, 1, -3, 0)"><path class="a" d="M184.4,88.4V81.137c0-3.279.724-4.937,5.814-4.937H196.6V64H185.943c-13.057,0-17.365,5.985-17.365,16.26V88.4H160v12.2h8.578v36.6H184.4V100.6H195.15L196.6,88.4Zm8.044,9.15H181.349v36.6h-9.721v-36.6H163.05v-6.1h8.578V80.26c0-4.67,1.029-7.853,2.955-9.874,2.135-2.287,5.928-3.336,11.361-3.336h7.606v6.1h-3.336c-2.287,0-5.242.21-7.072,2.23a8.147,8.147,0,0,0-1.792,5.738V91.449h11.818Z" transform="translate(-127.39 -55.37)"/></g><g transform="translate(0 0)"><g class="c" transform="matrix(1, 0, 0, 1, -3, 0)"><path class="a" d="M16.57,21.3H21.3V0H16.57V16.57H0V21.3Z" transform="translate(78.17 70.66)"/></g><g class="b" transform="matrix(1, 0, 0, 1, -3, 0)"><path class="a" d="M16.57,21.3H21.3V0H16.57V16.57H0V21.3Z" transform="translate(24.3 21.3) rotate(180)"/></g></g></g></svg>