<svg xmlns="http://www.w3.org/2000/svg" xmlns:xlink="http://www.w3.org/1999/xlink" viewBox="0 0 102.476 97.966"><defs><style>.a{fill:#fff;}.b,.d{fill:none;}.b{stroke:#fff;stroke-width:2.5px;}.c{stroke:none;}.e{filter:url(#i);}.f{filter:url(#g);}.g{filter:url(#e);}.h{filter:url(#c);}.i{filter:url(#a);}</style><filter id="a" x="75.173" y="70.662" width="27.304" height="27.304" filterUnits="userSpaceOnUse"><feOffset dy="3" input="SourceAlpha"/><feGaussianBlur stdDeviation="1" result="b"/><feFlood flood-opacity="0.42"/><feComposite operator="in" in2="b"/><feComposite in="SourceGraphic"/></filter><filter id="c" x="0" y="0" width="27.304" height="27.304" filterUnits="userSpaceOnUse"><feOffset dy="3" input="SourceAlpha"/><feGaussianBlur stdDeviation="1" result="d"/><feFlood flood-opacity="0.42"/><feComposite operator="in" in2="d"/><feComposite in="SourceGraphic"/></filter><filter id="e" x="18.041" y="15.163" width="66.138" height="66.138" filterUnits="userSpaceOnUse"><feOffset dy="3" input="SourceAlpha"/><feGaussianBlur stdDeviation="1" result="f"/><feFlood flood-opacity="0.22"/><feComposite operator="in" in2="f"/><feComposite in="SourceGraphic"/></filter><filter id="g" x="33.076" y="30.197" width="36.069" height="36.069" filterUnits="userSpaceOnUse"><feOffset dy="3" input="SourceAlpha"/><feGaussianBlur stdDeviation="1" result="h"/><feFlood flood-opacity="0.22"/><feComposite operator="in" in2="h"/><feComposite in="SourceGraphic"/></filter><filter id="i" x="61.642" y="24.184" width="12.014" height="12.014" filterUnits="userSpaceOnUse"><feOffset dy="3" input="SourceAlpha"/><feGaussianBlur stdDeviation="1" result="j"/><feFlood flood-opacity="0.22"/><feComposite operator="in" in2="j"/><feComposite in="SourceGraphic"/></filter></defs><g transform="translate(3 0)"><g class="i" transform="matrix(1, 0, 0, 1, -3, 0)"><path class="a" d="M16.57,21.3H21.3V0H16.57V16.57H0V21.3Z" transform="translate(78.17 70.66)"/></g><g class="h" transform="matrix(1, 0, 0, 1, -3, 0)"><path class="a" d="M16.57,21.3H21.3V0H16.57V16.57H0V21.3Z" transform="translate(24.3 21.3) rotate(180)"/></g><g transform="translate(18.041 15.163)"><g class="g" transform="matrix(1, 0, 0, 1, -21.04, -15.16)"><g class="b" transform="translate(21.04 15.16)"><rect class="c" width="60.138" height="60.138" rx="9"/><rect class="d" x="1.25" y="1.25" width="57.638" height="57.638" rx="7.75"/></g></g><g class="f" transform="matrix(1, 0, 0, 1, -21.04, -15.16)"><g class="b" transform="translate(36.08 30.2)"><circle class="c" cx="15.035" cy="15.035" r="15.035"/><circle class="d" cx="15.035" cy="15.035" r="13.785"/></g></g><g class="e" transform="matrix(1, 0, 0, 1, -21.04, -15.16)"><circle class="a" cx="3.007" cy="3.007" r="3.007" transform="translate(64.64 24.18)"/></g></g></g></svg>