<svg xmlns="http://www.w3.org/2000/svg" viewBox="0 0 1910 1265"><defs><style>.a{opacity:0.96;}.b{fill:#038dfe;font-size:35px;font-family:SegoeUI-Bold, Segoe UI;font-weight:700;}</style></defs><g class="a" transform="translate(-5 -179)"><text class="b" transform="translate(905 315) rotate(90)"><tspan x="9.297" y="38">01110001110100011100101000011110010101110</tspan></text><text class="b" transform="translate(1693 179) rotate(90)"><tspan x="0.902" y="38">01110001110100011100101010011100101011101011101</tspan></text><text class="b" transform="translate(683 315) rotate(90)"><tspan x="0.138" y="38">011100011101000111001010000111100101011101011101110</tspan></text><text class="b" transform="translate(1188 326) rotate(90)"><tspan x="7.929" y="38">011100011101000111001010000111100101011</tspan></text><text class="b" transform="translate(178 184) rotate(90)"><tspan x="3.611" y="38">01110001110100011100101000011110010101110101110111010111011</tspan></text><text class="b" transform="translate(1465 395) rotate(90)"><tspan x="8.193" y="38">01110001110100011100101000011110010</tspan></text><text class="b" transform="translate(960 315) rotate(90)"><tspan x="9.006" y="38">01110001110100011100101000011110010101110101110111010</tspan></text><text class="b" transform="translate(1748 437) rotate(90)"><tspan x="8.231" y="38">011100011101000111001010000110010101110101</tspan></text><text class="b" transform="translate(738 548) rotate(90)"><tspan x="2.259" y="38">0111000111010001110010100001111001</tspan></text><text class="b" transform="translate(1243 231) rotate(90)"><tspan x="8.572" y="38">0111000111010001110010100001111001010111010111011101</tspan></text><text class="b" transform="translate(1520 492) rotate(90)"><tspan x="5.1" y="38">01110001110100011100101000011110010101110101</tspan></text><text class="b" transform="translate(510 231) rotate(90)"><tspan x="9.006" y="38">01110001110100011100101000011110010101110101110111010</tspan></text><text class="b" transform="translate(1015 315) rotate(90)"><tspan x="3.006" y="38">01110001110100011100101000011110010101110101110111010</tspan></text><text class="b" transform="translate(1803 179) rotate(90)"><tspan x="2.638" y="38">011100011101000111001010000111100101011101011101110</tspan></text><text class="b" transform="translate(793 228) rotate(90)"><tspan x="0.809" y="38">01110001110100011100101000011110010101110101110111010111</tspan></text><text class="b" transform="translate(1298 473) rotate(90)"><tspan x="3.902" y="38">01110001110100011100101000011110010101110101110</tspan></text><text class="b" transform="translate(288 250) rotate(90)"><tspan x="0.138" y="38">011100011101000111001010000111100101011101011101110</tspan></text><text class="b" transform="translate(1575 200) rotate(90)"><tspan x="1.77" y="38">0111000111010001110010100001111001010111010111011</tspan></text><text class="b" transform="translate(565 374) rotate(90)"><tspan x="8.572" y="38">0111000111010001110010100001111001010111010111011101</tspan></text><text class="b" transform="translate(1070 179) rotate(90)"><tspan x="3.27" y="38">0111000111010001110010100001111001010111010111011</tspan></text><text class="b" transform="translate(60 473) rotate(90)"><tspan x="7.968" y="38">0111000111010001110010100001111001010111010111</tspan></text><text class="b" transform="translate(1857 488) rotate(90)"><tspan x="8.061" y="38">0111000111010001110010100001111001010</tspan></text><text class="b" transform="translate(847 216) rotate(90)"><tspan x="6.836" y="38">011100011101000111001010000111100101011101011101</tspan></text><text class="b" transform="translate(1352 260) rotate(90)"><tspan x="8.572" y="38">0111000111010001110010100001111001010111010111011101</tspan></text><text class="b" transform="translate(1630 374) rotate(90)"><tspan x="2.204" y="38">01110001110100011100101000011110010101110101110111</tspan></text><text class="b" transform="translate(620 216) rotate(90)"><tspan x="3.27" y="38">0111000111010001110010100001111001010111010111011</tspan></text><text class="b" transform="translate(1125 415) rotate(90)"><tspan x="1.468" y="38">0111000111010001110010100001111001010111010111</tspan></text><text class="b" transform="translate(115 374) rotate(90)"><tspan x="7.534" y="38">011100011101000111001010000111100101011101011</tspan></text><text class="b" transform="translate(1915 315) rotate(90)"><tspan x="0.809" y="38">01110001110100011100101000011110010101110101110111010111</tspan></text><text class="b" transform="translate(1410 200) rotate(90)"><tspan x="2.204" y="38">01110001110100011100101000011110010101110101110111</tspan></text><text class="b" transform="translate(400 266) rotate(90)"><tspan x="6.836" y="38">011100011101000111001010000111100101011101011101</tspan></text></g></svg>