<svg xmlns="http://www.w3.org/2000/svg" width="99.868" height="99.867" viewBox="0 0 99.868 99.867"><g transform="translate(28.934 28.934)"><path d="M0,0H41.756V41.756H0Z" fill="none"/><path d="M9.3,16.553A26.356,26.356,0,0,0,20.764,28.019l3.828-3.828a1.73,1.73,0,0,1,1.775-.418,19.846,19.846,0,0,0,6.211.992,1.745,1.745,0,0,1,1.74,1.74v6.072a1.745,1.745,0,0,1-1.74,1.74A29.574,29.574,0,0,1,3,4.74,1.745,1.745,0,0,1,4.74,3h6.089a1.745,1.745,0,0,1,1.74,1.74,19.765,19.765,0,0,0,.992,6.211,1.746,1.746,0,0,1-.435,1.775Z" transform="translate(2.22 2.219)" fill="#fff"/></g><g fill="none" stroke="#fff" stroke-width="5"><ellipse cx="49.934" cy="49.934" rx="49.934" ry="49.934" stroke="none"/><ellipse cx="49.934" cy="49.934" rx="47.434" ry="47.434" fill="none"/></g></svg>