<svg xmlns="http://www.w3.org/2000/svg" xmlns:xlink="http://www.w3.org/1999/xlink" viewBox="0 0 102.476 97.966"><defs><style>.a{fill:#fff;}.b{filter:url(#e);}.c{filter:url(#c);}.d{filter:url(#a);}</style><filter id="a" x="75.173" y="70.662" width="27.304" height="27.304" filterUnits="userSpaceOnUse"><feOffset dy="3" input="SourceAlpha"/><feGaussianBlur stdDeviation="1" result="b"/><feFlood flood-opacity="0.22"/><feComposite operator="in" in2="b"/><feComposite in="SourceGraphic"/></filter><filter id="c" x="0" y="0" width="27.304" height="27.304" filterUnits="userSpaceOnUse"><feOffset dy="3" input="SourceAlpha"/><feGaussianBlur stdDeviation="1" result="d"/><feFlood flood-opacity="0.22"/><feComposite operator="in" in2="d"/><feComposite in="SourceGraphic"/></filter><filter id="e" x="7.517" y="14.547" width="88.275" height="72.95" filterUnits="userSpaceOnUse"><feOffset dy="3" input="SourceAlpha"/><feGaussianBlur stdDeviation="1" result="f"/><feFlood flood-opacity="0.22"/><feComposite operator="in" in2="f"/><feComposite in="SourceGraphic"/></filter></defs><g transform="translate(3 0)"><g transform="translate(0 0)"><g class="d" transform="matrix(1, 0, 0, 1, -3, 0)"><path class="a" d="M16.57,21.3H21.3V0H16.57V16.57H0V21.3Z" transform="translate(78.17 70.66)"/></g><g class="c" transform="matrix(1, 0, 0, 1, -3, 0)"><path class="a" d="M16.57,21.3H21.3V0H16.57V16.57H0V21.3Z" transform="translate(24.3 21.3) rotate(180)"/></g></g><g class="b" transform="matrix(1, 0, 0, 1, -3, 0)"><path class="a" d="M77.06,66.79a14.1,14.1,0,0,1,10.287,4.463l1.064,1.133,1.517-.3c.785-.157,1.552-.331,2.319-.54a19.581,19.581,0,0,1-1.918,1.883c-.785.7-3.1,2.877-3.1,2.877a25.429,25.429,0,0,0,3.679.872,14.125,14.125,0,0,0,3.3-.139c-.488.4-1.36,1.011-1.883,1.377l-1.22.889.07,1.5c.035.663.052,1.36.052,2.057a46.094,46.094,0,0,1-2.964,15.953,46.891,46.891,0,0,1-8.717,14.61,42.568,42.568,0,0,1-14.14,10.6,45.771,45.771,0,0,1-19.44,4.115,44.905,44.905,0,0,1-14.732-2.476,36.426,36.426,0,0,0,15.552-7.131l6.155-4.829-7.828-.139a14.072,14.072,0,0,1-11.211-5.91,19.383,19.383,0,0,0,3.749-.645l10.583-3.522-10.757-1.9a14.1,14.1,0,0,1-10.688-9.729,21.437,21.437,0,0,0,4.167.575s5.544.244,9.729-.017c-2.267-1.081-8.09-5.091-8.09-5.091a14.118,14.118,0,0,1-6.277-11.751,15.085,15.085,0,0,1,.384-3.313A50.747,50.747,0,0,0,60.462,87.5l3.7.192-.837-3.609a13.963,13.963,0,0,1-.366-3.225,14.115,14.115,0,0,1,14.1-14.07m0-2.79A16.883,16.883,0,0,0,60.183,80.894a16.526,16.526,0,0,0,.436,3.853,47.837,47.837,0,0,1-34.8-17.662,16.928,16.928,0,0,0,5.23,22.561,16.474,16.474,0,0,1-7.654-2.11v.209a16.9,16.9,0,0,0,13.547,16.563,16.991,16.991,0,0,1-4.446.593,15.925,15.925,0,0,1-3.173-.314A16.907,16.907,0,0,0,45.1,116.322a33.843,33.843,0,0,1-20.974,7.235,34.214,34.214,0,0,1-4.027-.244,47.284,47.284,0,0,0,25.856,7.636c31.069,0,48.051-25.751,48.051-48.085,0-.732-.017-1.465-.052-2.179a34.361,34.361,0,0,0,8.421-8.752A34.126,34.126,0,0,1,92.681,74.6a16.939,16.939,0,0,0,7.427-9.345,33.541,33.541,0,0,1-10.722,4.1A16.859,16.859,0,0,0,77.06,64Z" transform="translate(-9.58 -49.45)"/></g></g></svg>