<svg xmlns="http://www.w3.org/2000/svg" xmlns:xlink="http://www.w3.org/1999/xlink" viewBox="0 0 102.476 97.966"><defs><style>.a{fill:#fff;}.b{filter:url(#g);}.c{filter:url(#e);}.d{filter:url(#c);}.e{filter:url(#a);}</style><filter id="a" x="75.173" y="70.662" width="27.304" height="27.304" filterUnits="userSpaceOnUse"><feOffset dy="3" input="SourceAlpha"/><feGaussianBlur stdDeviation="1" result="b"/><feFlood flood-opacity="0.22"/><feComposite operator="in" in2="b"/><feComposite in="SourceGraphic"/></filter><filter id="c" x="0" y="0" width="27.304" height="27.304" filterUnits="userSpaceOnUse"><feOffset dy="3" input="SourceAlpha"/><feGaussianBlur stdDeviation="1" result="d"/><feFlood flood-opacity="0.22"/><feComposite operator="in" in2="d"/><feComposite in="SourceGraphic"/></filter><filter id="e" x="11.182" y="17.597" width="79.877" height="61.421" filterUnits="userSpaceOnUse"><feOffset dy="3" input="SourceAlpha"/><feGaussianBlur stdDeviation="1" result="f"/><feFlood flood-opacity="0.22"/><feComposite operator="in" in2="f"/><feComposite in="SourceGraphic"/></filter><filter id="g" x="41.05" y="31.073" width="26.921" height="34.338" filterUnits="userSpaceOnUse"><feOffset dy="3" input="SourceAlpha"/><feGaussianBlur stdDeviation="1" result="h"/><feFlood flood-opacity="0.22"/><feComposite operator="in" in2="h"/><feComposite in="SourceGraphic"/></filter></defs><g transform="translate(3 0)"><g transform="translate(0 0)"><g class="e" transform="matrix(1, 0, 0, 1, -3, 0)"><path class="a" d="M16.57,21.3H21.3V0H16.57V16.57H0V21.3Z" transform="translate(78.17 70.66)"/></g><g class="d" transform="matrix(1, 0, 0, 1, -3, 0)"><path class="a" d="M16.57,21.3H21.3V0H16.57V16.57H0V21.3Z" transform="translate(24.3 21.3) rotate(180)"/></g></g><g transform="translate(11.182 17.597)"><g transform="translate(0)"><g class="c" transform="matrix(1, 0, 0, 1, -14.18, -17.6)"><path class="a" d="M38.23,68.617c9.422,0,17.127.159,24.255.476h.2c3.333,0,6.06,3.174,6.06,7.084v.159l.014.159c.332,4.906.491,10,.491,15.136h0c.014,5.137-.159,10.23-.491,15.136l-.014.159v.159a7.647,7.647,0,0,1-1.933,5.209,5.585,5.585,0,0,1-4.127,1.933h-.231c-7.633.361-15.7.548-24.009.548H35.359c-8.34,0-16.405-.188-23.98-.534h-.231a5.555,5.555,0,0,1-4.112-1.933A7.716,7.716,0,0,1,5.1,107.1v-.159l-.014-.159c-.346-4.92-.505-10.013-.476-15.107v-.029c-.014-5.093.144-10.172.476-15.092l.014-.159v-.159c0-3.925,2.713-7.113,6.046-7.113h.2c7.142-.332,14.847-.476,24.269-.476H38.23m0-4.646h-2.6c-8.311,0-16.478.115-24.471.476C5.275,64.476.5,69.714.5,76.207.138,81.372-.02,86.509-.006,91.66c-.014,5.151.13,10.288.491,15.439,0,6.493,4.776,11.774,10.663,11.774q11.86.563,24.211.548h3.117q12.358,0,24.226-.548c5.9,0,10.677-5.281,10.677-11.774q.519-7.727.491-15.453c.014-5.151-.144-10.288-.491-15.453,0-6.493-4.776-11.7-10.677-11.7C54.708,64.115,46.555,64,38.23,64Z" transform="translate(14.19 -46.4)"/></g><g transform="translate(29.868 13.476)"><g class="b" transform="matrix(1, 0, 0, 1, -44.05, -31.07)"><path class="a" d="M207,185.738V157.4l20.921,14.169Z" transform="translate(-162.95 -126.33)"/></g></g></g></g></g></svg>